PathFileType	4	(X/Y/Z)	/Users/niels/Desktop/University/Third Semester/Perception and Action/Exam/Gymnastics Motion Tracking/Code for Gym Tracking/Analyzed Data/Webcam_Backflip/id3_1_trajectory_Sports2D/id3_1_trajectory_Sports2D_px_person00.trc
DataRate	CameraRate	NumFrames	NumMarkers	Units	OrigDataRate	OrigDataStartFrame	OrigNumFrames
29.8125	29.8125	10	22	m	29.8125	20	160
Frame#	Time	Hip			RHip			RKnee			RAnkle			RBigToe			RSmallToe			RHeel			LHip			LKnee			LAnkle			LBigToe			LSmallToe			LHeel			Neck			Head			Nose			RShoulder			RElbow			RWrist			LShoulder			LElbow			LWrist		
		X1	Y1	Z1	X2	Y2	Z2	X3	Y3	Z3	X4	Y4	Z4	X5	Y5	Z5	X6	Y6	Z6	X7	Y7	Z7	X8	Y8	Z8	X9	Y9	Z9	X10	Y10	Z10	X11	Y11	Z11	X12	Y12	Z12	X13	Y13	Z13	X14	Y14	Z14	X15	Y15	Z15	X16	Y16	Z16	X17	Y17	Z17	X18	Y18	Z18	X19	Y19	Z19	X20	Y20	Z20	X21	Y21	Z21	X22	Y22	Z22
20	0.670859538784067	0.9532491382882355	-0.5702774969148834	0.0	0.9490569059554221	-0.5671959906481531	0.0	0.9962482166713904	-0.6764293151954514	0.0	0.9759558204832969	-0.7899740137550619	0.0	1.0185497459161135	-0.8017684611422772	0.0	1.0105443474352485	-0.8061755604033356	0.0	0.9657308932480428	-0.8045713310901028	0.0	0.9584925055904785	-0.5672470711818001	0.0	0.9962824075535441	-0.6752279603042682	0.0	0.9786755640925062	-0.7798710651655323	0.0	1.0232773404980942	-0.7956243131762392	0.0	1.0177154746007315	-0.7931887979644082	0.0	0.9659023284518768	-0.7956748703474966	0.0	1.0125146314577238	-0.421642056796096	0.0	1.0414377237275934	-0.3576417601071369	0.0	1.051167142824047	-0.39799787193962755	0.0	1.0039427822754465	-0.4424639793664696	0.0	1.0634296013345412	-0.5039362117066887	0.0	1.1288953885520514	-0.5336662543213424	0.0	0.997961489045343	-0.43745529314761655	0.0	1.0530516089083162	-0.49745556386352263	0.0	1.1187911180197658	-0.5277257378995274	0.0
21	0.7044025157232703	0.9535125896661782	-0.5739159526132838	0.0	0.9491769909088901	-0.570810069840233	0.0	1.0009175628124385	-0.6783857981036594	0.0	0.9766523112278177	-0.7921742846506633	0.0	1.0185970512846245	-0.8035764173381198	0.0	1.0101953837220765	-0.8078567511662399	0.0	0.965951653731448	-0.8059694858562999	0.0	0.958902431579285	-0.5704513294094675	0.0	1.0004523312636184	-0.6770686325722934	0.0	0.9792718439389397	-0.7814020472810045	0.0	1.0246260049364195	-0.7974073302325974	0.0	1.0182676441742096	-0.7944278596473162	0.0	0.9666856349065718	-0.7960975656974368	0.0	1.0126174712276281	-0.42528971795687737	0.0	1.0433644575827432	-0.3627091191319577	0.0	1.0518756374569462	-0.4023003726985507	0.0	1.0037585627189838	-0.44707692520986353	0.0	1.0606127226134205	-0.5119424994484609	0.0	1.123940168828604	-0.545750027812519	0.0	0.9970079193776983	-0.44119413264242957	0.0	1.0478744793061026	-0.5050963553904263	0.0	1.1115450688762198	-0.5401409374422645	0.0
22	0.7379454926624737	0.9543784223615297	-0.5778903850246327	0.0	0.9504103759446171	-0.5747664485605791	0.0	1.0049454408438694	-0.6810490308887778	0.0	0.9773175879023505	-0.7950340104796372	0.0	1.018430750940691	-0.806537826773488	0.0	1.0096809268209732	-0.8106211970288505	0.0	0.9662554734134299	-0.8081279845256154	0.0	0.9597915632919907	-0.5739834176181009	0.0	1.0039335078124922	-0.6797182922548789	0.0	0.979668664825848	-0.7840643018156636	0.0	1.0252928441432485	-0.8002080624102194	0.0	1.0182520678911877	-0.7968261278428299	0.0	0.9675463538075871	-0.797647028418104	0.0	1.012519599568397	-0.42884419439431515	0.0	1.0448320050391775	-0.3671214784597641	0.0	1.0525282644327798	-0.40606677649595957	0.0	1.0032188749292505	-0.4514073081821518	0.0	1.0563991428619115	-0.5200385317255172	0.0	1.117410236613791	-0.558860718696357	0.0	0.9958972715077592	-0.4448581901090897	0.0	1.0408762410995074	-0.5129105831016505	0.0	1.1004859920381065	-0.5535141683183141	0.0
23	0.771488469601677	0.9557149054482396	-0.581920488889736	0.0	0.9527054566467117	-0.5787893750966928	0.0	1.008009781277077	-0.6843720381894792	0.0	0.9779593951429126	-0.7984962576198145	0.0	1.0181951072938504	-0.810720124241688	0.0	1.009215711501703	-0.8145193618312156	0.0	0.9666975002721805	-0.8110965990903437	0.0	0.9609596810426599	-0.5776759740842081	0.0	1.0064668245424406	-0.683146527812953	0.0	0.979885679282747	-0.7880097116167813	0.0	1.0251670010716372	-0.804266785667051	0.0	1.017601352689457	-0.8006705056812923	0.0	0.9682741446982347	-0.8005856957086808	0.0	1.0123398847102534	-0.4321205342063611	0.0	1.0459305195021789	-0.37076002900447985	0.0	1.053131578868021	-0.40921430111287155	0.0	1.0025002584177534	-0.45517246207055667	0.0	1.0506369194160055	-0.5275836043926022	0.0	1.109124087636211	-0.5721039376048409	0.0	0.9949321759574472	-0.4483194113392182	0.0	1.03220126730299	-0.520399702386176	0.0	1.085563853547097	-0.5668528936378694	0.0
24	0.8050314465408803	0.9573670930292929	-0.5856835767096925	0.0	0.9558454747546086	-0.5825216074386824	0.0	1.0099060016064516	-0.6880768522964299	0.0	0.9786084995928422	-0.8022869598269278	0.0	1.0178795522244475	-0.815807239796012	0.0	1.0088389950036118	-0.8192578408797888	0.0	0.967300367078442	-0.8146616909653315	0.0	0.9622603927274286	-0.5812601226331326	0.0	1.0079629891792454	-0.6870529537854535	0.0	0.9799784695213495	-0.7929932956365298	0.0	1.024225874185616	-0.8094013622813873	0.0	1.01631167533568	-0.805841738079082	0.0	0.9686469350970618	-0.8047810580314565	0.0	1.0122328751851846	-0.434943151494359	0.0	1.0469377571415417	-0.37360527338976446	0.0	1.0537351391457361	-0.4117070478544131	0.0	1.00186057032488	-0.45809166586662425	0.0	1.043298601380237	-0.5338970251907577	0.0	1.098886874307161	-0.5844494839209562	0.0	0.9944187534924827	-0.45143518241905045	0.0	1.022362091965781	-0.5270097646623434	0.0	1.0681316429429468	-0.5791338121940304	0.0
25	0.8385744234800837	0.9591934851793884	-0.5888363052056789	0.0	0.9594740421441096	-0.5855905971980763	0.0	1.010540275575161	-0.6917203061794314	0.0	0.979267105094757	-0.8059830880036701	0.0	1.0173023095303455	-0.8211841496975621	0.0	1.0083544087592007	-0.8242783567119047	0.0	0.9680355809227074	-0.8184220890505554	0.0	0.9636127337253696	-0.5843954122594679	0.0	1.0084306968195536	-0.6909303183523959	0.0	0.9800201636223194	-0.7983627746123614	0.0	1.0225454448647204	-0.8149823812433377	0.0	1.0144625729428391	-0.8117498161021034	0.0	0.9685695698618685	-0.8097012627168483	0.0	1.012378464767079	-0.43714114893560074	0.0	1.0482447479012569	-0.3756703554361593	0.0	1.054482841761467	-0.41353132857913777	0.0	1.001584966318744	-0.4598978151945473	0.0	1.0345240042882922	-0.5382792423906254	0.0	1.0864296253179437	-0.5948310250005853	0.0	0.9946208691422024	-0.4540068364781071	0.0	1.012387476381313	-0.5321566266070954	0.0	1.0508852197043328	-0.5894025539981015	0.0
26	0.8721174004192871	0.9610729788091972	-0.5910641834248254	0.0	0.9631716937227784	-0.5876925760810088	0.0	1.0099372473685035	-0.6948094468698897	0.0	0.9798692351309056	-0.8091143796074695	0.0	1.016323434596287	-0.8260576407702614	0.0	1.0075348680711231	-0.8288582090594162	0.0	0.9688006203761459	-0.8218971751389763	0.0	0.9649375824528815	-0.5867403957441347	0.0	1.0078973000387668	-0.6941880663095278	0.0	0.9800655978001563	-0.8032249989693311	0.0	1.0203483827303053	-0.8200503428602506	0.0	1.0122926518643436	-0.8174055987546311	0.0	0.9681588220983172	-0.8145413758140576	0.0	1.0129673059259214	-0.43852710425860386	0.0	1.050208485549181	-0.3769664286576342	0.0	1.0556046061432225	-0.41469317409335266	0.0	1.0019363307745237	-0.46037053913597736	0.0	1.0246313217671674	-0.5400704383792263	0.0	1.0714146444376362	-0.6022096038474715	0.0	0.9956819968669002	-0.4557506940247994	0.0	1.003236034303674	-0.5352631329185372	0.0	1.0357431966455615	-0.5967666181961262	0.0
27	0.9056603773584905	0.9629329758983366	-0.5921484776922658	0.0	0.9665107973636136	-0.5886275384027082	0.0	1.0082010225270812	-0.6968925430565251	0.0	0.9802506511186134	-0.8112631681365665	0.0	1.0150691768104856	-0.8295840351598093	0.0	1.0063981915130709	-0.8322013799366866	0.0	0.9693865378200146	-0.8246021230126404	0.0	0.966197008709761	-0.5880165102808921	0.0	1.0064090087671334	-0.6963102539967589	0.0	0.9800927826341777	-0.8067695636476573	0.0	1.0180420559515333	-0.8236170401559602	0.0	1.0102614800518244	-0.8217001566405162	0.0	0.9676523390784284	-0.8184755056931634	0.0	1.0141792973863655	-0.43890015355597256	0.0	1.0530347821161985	-0.3775095308341779	0.0	1.0573405610317033	-0.4152152086246456	0.0	1.0030703153581175	-0.45938076979035647	0.0	1.0140835141209383	-0.5387436994984498	0.0	1.0535554561183562	-0.6055717072143979	0.0	0.9976244392561707	-0.4563211073801258	0.0	0.9952528995085788	-0.5357682788002895	0.0	1.0222885746360182	-0.6003794194100506	0.0
28	0.9392033542976937	0.9647912621816955	-0.591962468926018	0.0	0.9691320945729898	-0.5882362160968168	0.0	1.0054671821322954	-0.6976258962053158	0.0	0.9801956186218456	-0.8121174160984123	0.0	1.0139063659254552	-0.8310753881812714	0.0	1.005234225347364	-0.8336538063996901	0.0	0.9695319979466376	-0.8261193245002226	0.0	0.9674764199302682	-0.5879958298803557	0.0	1.0040731641297902	-0.6969690390035201	0.0	0.9799849109519868	-0.8084981274932511	0.0	1.0161214073433875	-0.8250463349904825	0.0	1.0088838959763644	-0.823806871430897	0.0	0.967201397727363	-0.8208854840988903	0.0	1.0161535743726595	-0.43810115875877675	0.0	1.0567678309625421	-0.3772889178417082	0.0	1.0598394566744347	-0.4150645792053712	0.0	1.0049791321819759	-0.4569146207398398	0.0	1.0033846242827655	-0.5339418669120227	0.0	1.032837106727251	-0.6039285592119695	0.0	1.0004415809254716	-0.45538481584421325	0.0	0.9884500434825089	-0.5331445958599884	0.0	1.0091531020011801	-0.5994156240331766	0.0
29	0.9727463312368971	0.9667266907395784	-0.5903241477106902	0.0	0.9708561160662044	-0.5862897614908408	0.0	1.0019119985202314	-0.6967913893083714	0.0	0.9795858759977195	-0.8114454377095002	0.0	1.0131680863150023	-0.8301799323371424	0.0	1.0043389423955345	-0.8329007482430311	0.0	0.9690983690665109	-0.8261221262821465	0.0	0.9689080951010236	-0.5864236355403089	0.0	1.0010492469371628	-0.6960103320030789	0.0	0.9795958403373823	-0.8081749663781472	0.0	1.014966660424722	-0.8241467035178587	0.0	1.008435027687049	-0.8233758378187594	0.0	0.966757451922476	-0.8213708884995413	0.0	1.01892700340937	-0.43608534182188874	0.0	1.0613394027181826	-0.37621342542367664	0.0	1.063093174014351	-0.41409286256670225	0.0	1.007533912806204	-0.45307865704920114	0.0	0.9929703854899635	-0.5254779780543312	0.0	1.0097655370998404	-0.5964905597601221	0.0	1.0040955509383025	-0.4527331726151215	0.0	0.9827151823113712	-0.5269926343364015	0.0	0.9953838716358359	-0.5930893050678749	0.0
